<?xml version="1.0" encoding="UTF-8"?>
<svg xmlns="http://www.w3.org/2000/svg" xmlns:xlink="http://www.w3.org/1999/xlink" width="1125pt" height="1124.99995pt" viewBox="0 0 1125 1124.99995" version="1.2">
<g id="surface1">
<path style=" stroke:none;fill-rule:nonzero;fill:rgb(0%,0%,0%);fill-opacity:1;" d="M 456.328125 309.742188 L 525.429688 309.742188 L 525.429688 485.921875 L 456.328125 485.921875 Z M 456.328125 309.742188 "/>
<path style=" stroke:none;fill-rule:nonzero;fill:rgb(0%,0%,0%);fill-opacity:1;" d="M 513.070312 377.25 L 518.089844 309.597656 L 855.890625 334.648438 L 850.871094 402.300781 Z M 513.070312 377.25 "/>
<path style=" stroke:none;fill-rule:nonzero;fill:rgb(0%,0%,0%);fill-opacity:1;" d="M 461.4375 505.332031 L 466.453125 437.675781 L 850.84375 466.183594 L 845.828125 533.835938 Z M 461.4375 505.332031 "/>
<path style=" stroke:none;fill-rule:nonzero;fill:rgb(0%,0%,0%);fill-opacity:1;" d="M 785.921875 466.292969 L 855.027344 466.292969 L 855.027344 657.113281 L 785.921875 657.113281 Z M 785.921875 466.292969 "/>
<path style=" stroke:none;fill-rule:nonzero;fill:rgb(0%,0%,0%);fill-opacity:1;" d="M 456.339844 632.511719 L 461.355469 564.859375 L 807.671875 590.542969 L 802.652344 658.195312 Z M 456.339844 632.511719 "/>
<path style=" stroke:none;fill-rule:nonzero;fill:rgb(0%,0%,0%);fill-opacity:1;" d="M 851.058594 582.109375 L 847.636719 657.152344 L 762.238281 653.257812 Z M 851.058594 582.109375 "/>
<path style=" stroke:none;fill-rule:nonzero;fill:rgb(0%,0%,0%);fill-opacity:1;" d="M 786.972656 334.191406 L 856.074219 334.191406 L 856.074219 423.425781 L 786.972656 423.425781 Z M 786.972656 334.191406 "/>
<path style=" stroke:none;fill-rule:nonzero;fill:rgb(0%,0%,0%);fill-opacity:1;" d="M 456.253906 523.351562 L 456.253906 448.226562 L 541.746094 448.226562 Z M 456.253906 523.351562 "/>
<path style=" stroke:none;fill-rule:nonzero;fill:rgb(0%,0%,0%);fill-opacity:1;" d="M 456.253906 647.355469 L 456.253906 572.234375 L 541.746094 572.234375 Z M 456.253906 647.355469 "/>
<path style=" stroke:none;fill-rule:nonzero;fill:rgb(0%,0%,0%);fill-opacity:1;" d="M 802.414062 618.734375 L 854.792969 618.734375 L 854.792969 658.28125 L 802.414062 658.28125 Z M 802.414062 618.734375 "/>
<path style=" stroke:none;fill-rule:nonzero;fill:rgb(0%,0%,0%);fill-opacity:1;" d="M 463.644531 308.835938 L 525.359375 310.152344 L 524.449219 352.710938 L 462.734375 351.390625 Z M 463.644531 308.835938 "/>
<path style=" stroke:none;fill-rule:nonzero;fill:rgb(0%,0%,0%);fill-opacity:1;" d="M 456.328125 308.972656 L 469.167969 308.972656 L 469.167969 351.484375 L 456.328125 351.484375 Z M 456.328125 308.972656 "/>
<path style=" stroke:none;fill-rule:nonzero;fill:rgb(0%,0%,0%);fill-opacity:1;" d="M 456.328125 648.859375 L 525.429688 648.859375 L 525.429688 819.546875 L 456.328125 819.546875 Z M 456.328125 648.859375 "/>
<path style=" stroke:none;fill-rule:nonzero;fill:rgb(0%,0%,0%);fill-opacity:1;" d="M 456.335938 620.839844 L 456.335938 567.089844 L 495.375 567.089844 Z M 456.335938 620.839844 "/>
<path style=" stroke:none;fill-rule:nonzero;fill:rgb(0%,0%,0%);fill-opacity:1;" d="M 456.328125 565.898438 L 481.507812 565.898438 L 481.507812 590.589844 L 456.328125 590.589844 Z M 456.328125 565.898438 "/>
<path style=" stroke:none;fill-rule:nonzero;fill:rgb(100%,100%,100%);fill-opacity:1;" d="M 442.621094 540.632812 L 564.992188 545.492188 L 564.011719 570.164062 L 441.644531 565.304688 Z M 442.621094 540.632812 "/>
<path style=" stroke:none;fill-rule:nonzero;fill:rgb(100%,100%,100%);fill-opacity:1;" d="M 449.5 684.914062 L 449.5 647.355469 L 513.054688 647.355469 Z M 449.5 684.914062 "/>
<path style=" stroke:none;fill-rule:nonzero;fill:rgb(0%,0%,0%);fill-opacity:1;" d="M 456.34375 826.1875 L 456.34375 758.347656 L 854.816406 758.347656 L 854.816406 826.1875 Z M 456.34375 826.1875 "/>
<path style=" stroke:none;fill-rule:nonzero;fill:rgb(0%,0%,0%);fill-opacity:1;" d="M 372.675781 308.855469 L 441.777344 308.855469 L 441.777344 816.328125 L 372.675781 816.328125 Z M 372.675781 308.855469 "/>
<path style=" stroke:none;fill-rule:nonzero;fill:rgb(0%,0%,0%);fill-opacity:1;" d="M 262.808594 828.777344 L 262.808594 790.519531 L 331.714844 790.519531 L 331.714844 828.777344 Z M 262.808594 828.777344 "/>
<path style=" stroke:none;fill-rule:nonzero;fill:rgb(0%,0%,0%);fill-opacity:1;" d="M 262.804688 332.707031 L 331.910156 332.707031 L 331.910156 828.742188 L 262.804688 828.742188 Z M 262.804688 332.707031 "/>
<path style=" stroke:none;fill-rule:nonzero;fill:rgb(0%,0%,0%);fill-opacity:1;" d="M 270.4375 828.777344 L 264.300781 773.929688 L 435.367188 754.78125 L 441.507812 809.628906 Z M 270.4375 828.777344 "/>
<path style=" stroke:none;fill-rule:nonzero;fill:rgb(0%,0%,0%);fill-opacity:1;" d="M 324.285156 786.332031 L 436.941406 773.773438 L 441.683594 816.304688 L 329.023438 828.863281 Z M 324.285156 786.332031 "/>
<path style=" stroke:none;fill-rule:nonzero;fill:rgb(0%,0%,0%);fill-opacity:1;" d="M 372.675781 722.265625 L 407.226562 722.265625 L 407.226562 765.054688 L 372.675781 765.054688 Z M 372.675781 722.265625 "/>
<path style=" stroke:none;fill-rule:nonzero;fill:rgb(0%,0%,0%);fill-opacity:1;" d="M 325.78125 804.132812 L 400.683594 795.132812 L 403.648438 819.828125 L 328.75 828.828125 Z M 325.78125 804.132812 "/>
<path style=" stroke:none;fill-rule:nonzero;fill:rgb(100%,100%,100%);fill-opacity:1;" d="M 375.019531 760.414062 L 354.648438 785.691406 L 329.421875 765.359375 Z M 375.019531 760.414062 "/>
<path style=" stroke:none;fill-rule:nonzero;fill:rgb(0%,0%,0%);fill-opacity:1;" d="M 298.578125 740.085938 L 331.878906 740.085938 L 331.878906 772.738281 L 298.578125 772.738281 Z M 298.578125 740.085938 "/>
<path style=" stroke:none;fill-rule:nonzero;fill:rgb(0%,0%,0%);fill-opacity:1;" d="M 372.675781 738.582031 L 405.976562 738.582031 L 405.976562 771.234375 L 372.675781 771.234375 Z M 372.675781 738.582031 "/>
<path style=" stroke:none;fill-rule:nonzero;fill:rgb(0%,0%,0%);fill-opacity:1;" d="M 211.457031 254.222656 L 211.457031 884.640625 L 908.667969 884.640625 L 908.667969 254.222656 Z M 888.921875 864.894531 L 230.792969 864.894531 L 230.792969 273.558594 L 888.921875 273.558594 Z M 888.921875 864.894531 "/>
<path style=" stroke:none;fill-rule:nonzero;fill:rgb(0%,0%,0%);fill-opacity:1;" d="M 191.957031 235.140625 L 191.957031 897.640625 L 924.648438 897.640625 L 924.648438 235.140625 Z M 903.898438 876.886719 L 212.277344 876.886719 L 212.277344 255.460938 L 903.898438 255.460938 Z M 903.898438 876.886719 "/>
<path style=" stroke:none;fill-rule:nonzero;fill:rgb(0%,0%,0%);fill-opacity:1;" d="M 176.050781 222.207031 L 176.050781 915.40625 L 942.691406 915.40625 L 942.691406 222.207031 Z M 920.980469 893.691406 L 197.3125 893.691406 L 197.3125 243.46875 L 920.980469 243.46875 Z M 920.980469 893.691406 "/>
<path style=" stroke:none;fill-rule:nonzero;fill:rgb(100%,100%,100%);fill-opacity:1;" d="M 159.378906 870.832031 C 158.21875 870.832031 157.0625 870.863281 155.902344 870.917969 C 154.746094 870.976562 153.589844 871.0625 152.4375 871.175781 C 151.28125 871.289062 150.132812 871.429688 148.984375 871.601562 C 147.839844 871.769531 146.695312 871.96875 145.558594 872.195312 C 144.421875 872.421875 143.292969 872.675781 142.167969 872.957031 C 141.042969 873.238281 139.925781 873.546875 138.816406 873.882812 C 137.707031 874.21875 136.605469 874.582031 135.515625 874.972656 C 134.425781 875.363281 133.34375 875.78125 132.273438 876.226562 C 131.199219 876.667969 130.140625 877.136719 129.09375 877.632812 C 128.046875 878.128906 127.011719 878.652344 125.988281 879.195312 C 124.964844 879.742188 123.957031 880.316406 122.964844 880.910156 C 121.96875 881.507812 120.988281 882.125 120.027344 882.769531 C 119.0625 883.414062 118.113281 884.082031 117.183594 884.773438 C 116.253906 885.464844 115.339844 886.175781 114.441406 886.910156 C 113.546875 887.648438 112.667969 888.402344 111.808594 889.183594 C 110.949219 889.960938 110.113281 890.761719 109.292969 891.578125 C 108.472656 892.398438 107.671875 893.238281 106.894531 894.097656 C 106.117188 894.957031 105.359375 895.835938 104.625 896.730469 C 103.886719 897.625 103.175781 898.539062 102.484375 899.472656 C 101.792969 900.402344 101.125 901.351562 100.484375 902.3125 C 99.839844 903.277344 99.21875 904.257812 98.621094 905.25 C 98.027344 906.246094 97.457031 907.253906 96.910156 908.277344 C 96.363281 909.296875 95.839844 910.332031 95.347656 911.382812 C 94.851562 912.429688 94.378906 913.488281 93.9375 914.558594 C 93.492188 915.628906 93.078125 916.710938 92.6875 917.804688 C 92.296875 918.894531 91.933594 919.996094 91.59375 921.105469 C 91.257812 922.214844 90.949219 923.332031 90.667969 924.457031 C 90.386719 925.578125 90.132812 926.710938 89.90625 927.847656 C 89.679688 928.984375 89.480469 930.125 89.3125 931.273438 C 89.140625 932.417969 89 933.570312 88.886719 934.722656 C 88.773438 935.878906 88.6875 937.03125 88.628906 938.191406 C 88.574219 939.347656 88.546875 940.507812 88.546875 941.667969 C 88.546875 942.824219 88.574219 943.984375 88.628906 945.140625 C 88.6875 946.300781 88.773438 947.457031 88.886719 948.609375 C 89 949.761719 89.140625 950.914062 89.3125 952.058594 C 89.480469 953.207031 89.679688 954.347656 89.90625 955.484375 C 90.132812 956.621094 90.386719 957.753906 90.667969 958.878906 C 90.949219 960.003906 91.257812 961.117188 91.59375 962.226562 C 91.933594 963.335938 92.296875 964.4375 92.6875 965.53125 C 93.078125 966.621094 93.492188 967.703125 93.9375 968.773438 C 94.378906 969.84375 94.851562 970.902344 95.347656 971.953125 C 95.839844 973 96.363281 974.035156 96.910156 975.058594 C 97.457031 976.078125 98.027344 977.085938 98.621094 978.082031 C 99.21875 979.078125 99.839844 980.054688 100.484375 981.019531 C 101.125 981.984375 101.792969 982.929688 102.484375 983.863281 C 103.175781 984.792969 103.886719 985.707031 104.625 986.601562 C 105.359375 987.5 106.117188 988.375 106.894531 989.234375 C 107.671875 990.09375 108.472656 990.933594 109.292969 991.753906 C 110.113281 992.574219 110.949219 993.371094 111.808594 994.152344 C 112.667969 994.929688 113.546875 995.6875 114.441406 996.421875 C 115.339844 997.15625 116.253906 997.871094 117.183594 998.558594 C 118.113281 999.25 119.0625 999.917969 120.027344 1000.5625 C 120.988281 1001.207031 121.96875 1001.828125 122.964844 1002.421875 C 123.957031 1003.019531 124.964844 1003.589844 125.988281 1004.136719 C 127.011719 1004.683594 128.046875 1005.203125 129.09375 1005.699219 C 130.140625 1006.195312 131.199219 1006.664062 132.273438 1007.109375 C 133.34375 1007.550781 134.425781 1007.96875 135.515625 1008.359375 C 136.605469 1008.75 137.707031 1009.113281 138.816406 1009.449219 C 139.925781 1009.785156 141.042969 1010.09375 142.167969 1010.378906 C 143.292969 1010.660156 144.421875 1010.914062 145.558594 1011.140625 C 146.695312 1011.363281 147.839844 1011.5625 148.984375 1011.734375 C 150.132812 1011.902344 151.28125 1012.046875 152.4375 1012.160156 C 153.589844 1012.273438 154.746094 1012.359375 155.902344 1012.414062 C 157.0625 1012.472656 158.21875 1012.5 159.378906 1012.5 C 160.539062 1012.5 161.695312 1012.472656 162.855469 1012.414062 C 164.011719 1012.359375 165.167969 1012.273438 166.320312 1012.160156 C 167.476562 1012.046875 168.625 1011.902344 169.773438 1011.734375 C 170.917969 1011.5625 172.0625 1011.363281 173.199219 1011.140625 C 174.335938 1010.914062 175.464844 1010.660156 176.589844 1010.378906 C 177.714844 1010.09375 178.832031 1009.785156 179.941406 1009.449219 C 181.050781 1009.113281 182.148438 1008.75 183.242188 1008.359375 C 184.332031 1007.96875 185.414062 1007.550781 186.484375 1007.109375 C 187.554688 1006.664062 188.617188 1006.195312 189.664062 1005.699219 C 190.710938 1005.203125 191.746094 1004.683594 192.769531 1004.136719 C 193.792969 1003.589844 194.800781 1003.019531 195.792969 1002.421875 C 196.789062 1001.828125 197.769531 1001.207031 198.730469 1000.5625 C 199.695312 999.917969 200.644531 999.25 201.574219 998.558594 C 202.503906 997.871094 203.417969 997.15625 204.316406 996.421875 C 205.210938 995.6875 206.089844 994.929688 206.949219 994.152344 C 207.804688 993.371094 208.644531 992.574219 209.464844 991.753906 C 210.285156 990.933594 211.085938 990.09375 211.863281 989.234375 C 212.640625 988.375 213.398438 987.5 214.132812 986.601562 C 214.867188 985.707031 215.582031 984.792969 216.273438 983.863281 C 216.964844 982.929688 217.628906 981.984375 218.273438 981.019531 C 218.917969 980.054688 219.539062 979.078125 220.132812 978.082031 C 220.730469 977.085938 221.300781 976.078125 221.847656 975.058594 C 222.394531 974.035156 222.914062 973 223.410156 971.953125 C 223.90625 970.902344 224.375 969.84375 224.820312 968.773438 C 225.265625 967.703125 225.679688 966.621094 226.070312 965.53125 C 226.460938 964.4375 226.824219 963.335938 227.160156 962.226562 C 227.5 961.117188 227.808594 960.003906 228.089844 958.878906 C 228.371094 957.753906 228.625 956.621094 228.851562 955.484375 C 229.078125 954.347656 229.273438 953.207031 229.445312 952.058594 C 229.617188 950.914062 229.757812 949.761719 229.871094 948.609375 C 229.984375 947.457031 230.070312 946.300781 230.125 945.140625 C 230.183594 943.984375 230.210938 942.824219 230.210938 941.667969 C 230.210938 940.507812 230.183594 939.347656 230.125 938.191406 C 230.070312 937.03125 229.984375 935.878906 229.871094 934.722656 C 229.757812 933.570312 229.617188 932.417969 229.445312 931.273438 C 229.273438 930.125 229.078125 928.984375 228.851562 927.847656 C 228.625 926.710938 228.371094 925.578125 228.089844 924.457031 C 227.808594 923.332031 227.5 922.214844 227.160156 921.105469 C 226.824219 919.996094 226.460938 918.894531 226.070312 917.804688 C 225.679688 916.710938 225.265625 915.628906 224.820312 914.558594 C 224.375 913.488281 223.90625 912.429688 223.410156 911.382812 C 222.914062 910.332031 222.394531 909.296875 221.847656 908.277344 C 221.300781 907.253906 220.730469 906.246094 220.132812 905.25 C 219.539062 904.257812 218.917969 903.277344 218.273438 902.3125 C 217.628906 901.351562 216.964844 900.402344 216.273438 899.472656 C 215.582031 898.539062 214.867188 897.625 214.132812 896.730469 C 213.398438 895.835938 212.640625 894.957031 211.863281 894.097656 C 211.085938 893.238281 210.285156 892.398438 209.464844 891.578125 C 208.644531 890.761719 207.804688 889.960938 206.949219 889.183594 C 206.089844 888.402344 205.210938 887.648438 204.316406 886.910156 C 203.417969 886.175781 202.503906 885.464844 201.574219 884.773438 C 200.644531 884.082031 199.695312 883.414062 198.730469 882.769531 C 197.769531 882.125 196.789062 881.507812 195.792969 880.910156 C 194.800781 880.316406 193.792969 879.742188 192.769531 879.195312 C 191.746094 878.652344 190.710938 878.128906 189.664062 877.632812 C 188.617188 877.136719 187.554688 876.667969 186.484375 876.226562 C 185.414062 875.78125 184.332031 875.363281 183.242188 874.972656 C 182.148438 874.582031 181.050781 874.21875 179.941406 873.882812 C 178.832031 873.546875 177.714844 873.238281 176.589844 872.957031 C 175.464844 872.675781 174.335938 872.421875 173.199219 872.195312 C 172.0625 871.96875 170.917969 871.769531 169.773438 871.601562 C 168.625 871.429688 167.476562 871.289062 166.320312 871.175781 C 165.167969 871.0625 164.011719 870.976562 162.855469 870.917969 C 161.695312 870.863281 160.539062 870.832031 159.378906 870.832031 Z M 159.378906 870.832031 "/>
<path style=" stroke:none;fill-rule:nonzero;fill:rgb(100%,100%,100%);fill-opacity:1;" d="M 965.621094 870.832031 C 964.460938 870.832031 963.304688 870.863281 962.144531 870.917969 C 960.988281 870.976562 959.832031 871.0625 958.679688 871.175781 C 957.523438 871.289062 956.375 871.429688 955.226562 871.601562 C 954.082031 871.769531 952.9375 871.96875 951.800781 872.195312 C 950.664062 872.421875 949.535156 872.675781 948.410156 872.957031 C 947.285156 873.238281 946.167969 873.546875 945.058594 873.882812 C 943.949219 874.21875 942.851562 874.582031 941.757812 874.972656 C 940.667969 875.363281 939.585938 875.78125 938.515625 876.226562 C 937.445312 876.667969 936.382812 877.136719 935.335938 877.632812 C 934.289062 878.128906 933.253906 878.652344 932.230469 879.195312 C 931.207031 879.742188 930.199219 880.316406 929.207031 880.910156 C 928.210938 881.507812 927.230469 882.125 926.269531 882.769531 C 925.304688 883.414062 924.355469 884.082031 923.425781 884.773438 C 922.496094 885.464844 921.582031 886.175781 920.683594 886.910156 C 919.789062 887.648438 918.910156 888.402344 918.050781 889.183594 C 917.195312 889.960938 916.355469 890.761719 915.535156 891.578125 C 914.714844 892.398438 913.914062 893.238281 913.136719 894.097656 C 912.359375 894.957031 911.601562 895.835938 910.867188 896.730469 C 910.132812 897.625 909.417969 898.539062 908.726562 899.472656 C 908.035156 900.402344 907.371094 901.351562 906.726562 902.3125 C 906.082031 903.277344 905.460938 904.257812 904.867188 905.25 C 904.269531 906.246094 903.699219 907.253906 903.152344 908.277344 C 902.605469 909.296875 902.085938 910.332031 901.589844 911.382812 C 901.09375 912.429688 900.625 913.488281 900.179688 914.558594 C 899.734375 915.628906 899.320312 916.710938 898.929688 917.804688 C 898.539062 918.894531 898.175781 919.996094 897.839844 921.105469 C 897.5 922.214844 897.191406 923.332031 896.910156 924.457031 C 896.628906 925.578125 896.375 926.710938 896.148438 927.847656 C 895.921875 928.984375 895.726562 930.125 895.554688 931.273438 C 895.382812 932.417969 895.242188 933.570312 895.128906 934.722656 C 895.015625 935.878906 894.929688 937.03125 894.875 938.191406 C 894.816406 939.347656 894.789062 940.507812 894.789062 941.667969 C 894.789062 942.824219 894.816406 943.984375 894.875 945.140625 C 894.929688 946.300781 895.015625 947.457031 895.128906 948.609375 C 895.242188 949.761719 895.382812 950.914062 895.554688 952.058594 C 895.726562 953.207031 895.921875 954.347656 896.148438 955.484375 C 896.375 956.621094 896.628906 957.753906 896.910156 958.878906 C 897.191406 960.003906 897.5 961.117188 897.839844 962.226562 C 898.175781 963.335938 898.539062 964.4375 898.929688 965.53125 C 899.320312 966.621094 899.734375 967.703125 900.179688 968.773438 C 900.625 969.84375 901.09375 970.902344 901.589844 971.953125 C 902.085938 973 902.605469 974.035156 903.152344 975.058594 C 903.699219 976.078125 904.269531 977.085938 904.867188 978.082031 C 905.460938 979.078125 906.082031 980.054688 906.726562 981.019531 C 907.371094 981.984375 908.035156 982.929688 908.726562 983.863281 C 909.417969 984.792969 910.132812 985.707031 910.867188 986.601562 C 911.601562 987.5 912.359375 988.375 913.136719 989.234375 C 913.914062 990.09375 914.714844 990.933594 915.535156 991.753906 C 916.355469 992.574219 917.195312 993.371094 918.050781 994.152344 C 918.910156 994.929688 919.789062 995.6875 920.683594 996.421875 C 921.582031 997.15625 922.496094 997.871094 923.425781 998.558594 C 924.355469 999.25 925.304688 999.917969 926.269531 1000.5625 C 927.230469 1001.207031 928.210938 1001.828125 929.207031 1002.421875 C 930.199219 1003.019531 931.207031 1003.589844 932.230469 1004.136719 C 933.253906 1004.683594 934.289062 1005.203125 935.335938 1005.699219 C 936.382812 1006.195312 937.445312 1006.664062 938.515625 1007.109375 C 939.585938 1007.550781 940.667969 1007.96875 941.757812 1008.359375 C 942.851562 1008.75 943.949219 1009.113281 945.058594 1009.449219 C 946.167969 1009.785156 947.285156 1010.09375 948.410156 1010.378906 C 949.535156 1010.660156 950.664062 1010.914062 951.800781 1011.140625 C 952.9375 1011.363281 954.082031 1011.5625 955.226562 1011.734375 C 956.375 1011.902344 957.523438 1012.046875 958.679688 1012.160156 C 959.832031 1012.273438 960.988281 1012.359375 962.144531 1012.414062 C 963.304688 1012.472656 964.460938 1012.5 965.621094 1012.5 C 966.78125 1012.5 967.9375 1012.472656 969.097656 1012.414062 C 970.253906 1012.359375 971.410156 1012.273438 972.5625 1012.160156 C 973.71875 1012.046875 974.867188 1011.902344 976.015625 1011.734375 C 977.160156 1011.5625 978.304688 1011.363281 979.441406 1011.140625 C 980.578125 1010.914062 981.707031 1010.660156 982.832031 1010.378906 C 983.957031 1010.09375 985.074219 1009.785156 986.183594 1009.449219 C 987.292969 1009.113281 988.394531 1008.75 989.484375 1008.359375 C 990.574219 1007.96875 991.65625 1007.550781 992.726562 1007.109375 C 993.800781 1006.664062 994.859375 1006.195312 995.90625 1005.699219 C 996.953125 1005.203125 997.988281 1004.683594 999.011719 1004.136719 C 1000.035156 1003.589844 1001.042969 1003.019531 1002.035156 1002.421875 C 1003.03125 1001.828125 1004.011719 1001.207031 1004.972656 1000.5625 C 1005.9375 999.917969 1006.886719 999.25 1007.816406 998.558594 C 1008.746094 997.871094 1009.660156 997.15625 1010.558594 996.421875 C 1011.453125 995.6875 1012.332031 994.929688 1013.191406 994.152344 C 1014.050781 993.371094 1014.886719 992.574219 1015.707031 991.753906 C 1016.527344 990.933594 1017.328125 990.09375 1018.105469 989.234375 C 1018.882812 988.375 1019.640625 987.5 1020.375 986.601562 C 1021.113281 985.707031 1021.824219 984.792969 1022.515625 983.863281 C 1023.207031 982.929688 1023.871094 981.984375 1024.515625 981.019531 C 1025.160156 980.054688 1025.78125 979.078125 1026.378906 978.082031 C 1026.972656 977.085938 1027.542969 976.078125 1028.089844 975.058594 C 1028.636719 974.035156 1029.15625 973 1029.652344 971.953125 C 1030.148438 970.902344 1030.617188 969.84375 1031.0625 968.773438 C 1031.507812 967.703125 1031.921875 966.621094 1032.3125 965.53125 C 1032.703125 964.4375 1033.066406 963.335938 1033.40625 962.226562 C 1033.742188 961.117188 1034.050781 960.003906 1034.332031 958.878906 C 1034.613281 957.753906 1034.867188 956.621094 1035.09375 955.484375 C 1035.320312 954.347656 1035.519531 953.207031 1035.6875 952.058594 C 1035.859375 950.914062 1036 949.761719 1036.113281 948.609375 C 1036.226562 947.457031 1036.3125 946.300781 1036.371094 945.140625 C 1036.425781 943.984375 1036.453125 942.824219 1036.453125 941.667969 C 1036.453125 940.507812 1036.425781 939.347656 1036.371094 938.191406 C 1036.3125 937.03125 1036.226562 935.878906 1036.113281 934.722656 C 1036 933.570312 1035.859375 932.417969 1035.6875 931.273438 C 1035.519531 930.125 1035.320312 928.984375 1035.09375 927.847656 C 1034.867188 926.710938 1034.613281 925.578125 1034.332031 924.457031 C 1034.050781 923.332031 1033.742188 922.214844 1033.40625 921.105469 C 1033.066406 919.996094 1032.703125 918.894531 1032.3125 917.804688 C 1031.921875 916.710938 1031.507812 915.628906 1031.0625 914.558594 C 1030.617188 913.488281 1030.148438 912.429688 1029.652344 911.382812 C 1029.15625 910.332031 1028.636719 909.296875 1028.089844 908.277344 C 1027.542969 907.253906 1026.972656 906.246094 1026.378906 905.25 C 1025.78125 904.257812 1025.160156 903.277344 1024.515625 902.3125 C 1023.871094 901.351562 1023.207031 900.402344 1022.515625 899.472656 C 1021.824219 898.539062 1021.113281 897.625 1020.375 896.730469 C 1019.640625 895.835938 1018.882812 894.957031 1018.105469 894.097656 C 1017.328125 893.238281 1016.527344 892.398438 1015.707031 891.578125 C 1014.886719 890.761719 1014.050781 889.960938 1013.191406 889.183594 C 1012.332031 888.402344 1011.453125 887.648438 1010.558594 886.910156 C 1009.660156 886.175781 1008.746094 885.464844 1007.816406 884.773438 C 1006.886719 884.082031 1005.9375 883.414062 1004.972656 882.769531 C 1004.011719 882.125 1003.03125 881.507812 1002.035156 880.910156 C 1001.042969 880.316406 1000.035156 879.742188 999.011719 879.195312 C 997.988281 878.652344 996.953125 878.128906 995.90625 877.632812 C 994.859375 877.136719 993.800781 876.667969 992.726562 876.226562 C 991.65625 875.78125 990.574219 875.363281 989.484375 874.972656 C 988.394531 874.582031 987.292969 874.21875 986.183594 873.882812 C 985.074219 873.546875 983.957031 873.238281 982.832031 872.957031 C 981.707031 872.675781 980.578125 872.421875 979.441406 872.195312 C 978.304688 871.96875 977.160156 871.769531 976.015625 871.601562 C 974.867188 871.429688 973.71875 871.289062 972.5625 871.175781 C 971.410156 871.0625 970.253906 870.976562 969.097656 870.917969 C 967.9375 870.863281 966.78125 870.832031 965.621094 870.832031 Z M 965.621094 870.832031 "/>
<path style=" stroke:none;fill-rule:nonzero;fill:rgb(100%,100%,100%);fill-opacity:1;" d="M 965.621094 127.707031 C 964.460938 127.707031 963.304688 127.738281 962.144531 127.792969 C 960.988281 127.851562 959.832031 127.9375 958.679688 128.050781 C 957.523438 128.164062 956.375 128.304688 955.226562 128.476562 C 954.082031 128.644531 952.9375 128.84375 951.800781 129.070312 C 950.664062 129.296875 949.535156 129.550781 948.410156 129.832031 C 947.285156 130.113281 946.167969 130.421875 945.058594 130.757812 C 943.949219 131.09375 942.851562 131.457031 941.757812 131.847656 C 940.667969 132.238281 939.585938 132.65625 938.515625 133.101562 C 937.445312 133.542969 936.382812 134.011719 935.335938 134.507812 C 934.289062 135.003906 933.253906 135.527344 932.230469 136.070312 C 931.207031 136.617188 930.199219 137.191406 929.207031 137.785156 C 928.210938 138.382812 927.230469 139 926.269531 139.644531 C 925.304688 140.289062 924.355469 140.957031 923.425781 141.648438 C 922.496094 142.339844 921.582031 143.050781 920.683594 143.785156 C 919.789062 144.523438 918.910156 145.277344 918.050781 146.058594 C 917.195312 146.835938 916.355469 147.636719 915.535156 148.453125 C 914.714844 149.273438 913.914062 150.113281 913.136719 150.972656 C 912.359375 151.832031 911.601562 152.710938 910.867188 153.605469 C 910.132812 154.5 909.417969 155.414062 908.726562 156.347656 C 908.035156 157.277344 907.371094 158.226562 906.726562 159.1875 C 906.082031 160.152344 905.460938 161.132812 904.867188 162.125 C 904.269531 163.121094 903.699219 164.128906 903.152344 165.152344 C 902.605469 166.171875 902.085938 167.207031 901.589844 168.257812 C 901.09375 169.304688 900.625 170.363281 900.179688 171.433594 C 899.734375 172.507812 899.320312 173.585938 898.929688 174.679688 C 898.539062 175.769531 898.175781 176.871094 897.839844 177.980469 C 897.5 179.089844 897.191406 180.207031 896.910156 181.332031 C 896.628906 182.453125 896.375 183.585938 896.148438 184.722656 C 895.921875 185.859375 895.726562 187 895.554688 188.148438 C 895.382812 189.292969 895.242188 190.445312 895.128906 191.597656 C 895.015625 192.753906 894.929688 193.90625 894.875 195.066406 C 894.816406 196.222656 894.789062 197.382812 894.789062 198.542969 C 894.789062 199.699219 894.816406 200.859375 894.875 202.015625 C 894.929688 203.175781 895.015625 204.332031 895.128906 205.484375 C 895.242188 206.636719 895.382812 207.789062 895.554688 208.933594 C 895.726562 210.082031 895.921875 211.222656 896.148438 212.359375 C 896.375 213.496094 896.628906 214.628906 896.910156 215.753906 C 897.191406 216.878906 897.5 217.992188 897.839844 219.101562 C 898.175781 220.210938 898.539062 221.3125 898.929688 222.40625 C 899.320312 223.496094 899.734375 224.578125 900.179688 225.648438 C 900.625 226.71875 901.09375 227.777344 901.589844 228.828125 C 902.085938 229.875 902.605469 230.910156 903.152344 231.933594 C 903.699219 232.953125 904.269531 233.964844 904.867188 234.957031 C 905.460938 235.953125 906.082031 236.929688 906.726562 237.894531 C 907.371094 238.859375 908.035156 239.804688 908.726562 240.738281 C 909.417969 241.667969 910.132812 242.582031 910.867188 243.476562 C 911.601562 244.375 912.359375 245.25 913.136719 246.109375 C 913.914062 246.96875 914.714844 247.808594 915.535156 248.628906 C 916.355469 249.449219 917.195312 250.246094 918.050781 251.027344 C 918.910156 251.804688 919.789062 252.5625 920.683594 253.296875 C 921.582031 254.03125 922.496094 254.746094 923.425781 255.433594 C 924.355469 256.125 925.304688 256.792969 926.269531 257.4375 C 927.230469 258.082031 928.210938 258.703125 929.207031 259.296875 C 930.199219 259.894531 931.207031 260.464844 932.230469 261.011719 C 933.253906 261.558594 934.289062 262.078125 935.335938 262.574219 C 936.382812 263.070312 937.445312 263.539062 938.515625 263.984375 C 939.585938 264.425781 940.667969 264.84375 941.757812 265.234375 C 942.851562 265.625 943.949219 265.988281 945.058594 266.324219 C 946.167969 266.660156 947.285156 266.96875 948.410156 267.253906 C 949.535156 267.535156 950.664062 267.789062 951.800781 268.015625 C 952.9375 268.238281 954.082031 268.4375 955.226562 268.609375 C 956.375 268.777344 957.523438 268.921875 958.679688 269.035156 C 959.832031 269.148438 960.988281 269.234375 962.144531 269.289062 C 963.304688 269.347656 964.460938 269.375 965.621094 269.375 C 966.78125 269.375 967.9375 269.347656 969.097656 269.289062 C 970.253906 269.234375 971.410156 269.148438 972.5625 269.035156 C 973.71875 268.921875 974.867188 268.777344 976.015625 268.609375 C 977.160156 268.4375 978.304688 268.238281 979.441406 268.015625 C 980.578125 267.789062 981.707031 267.535156 982.832031 267.253906 C 983.957031 266.96875 985.074219 266.660156 986.183594 266.324219 C 987.292969 265.988281 988.394531 265.625 989.484375 265.234375 C 990.574219 264.84375 991.65625 264.425781 992.726562 263.984375 C 993.800781 263.539062 994.859375 263.070312 995.90625 262.574219 C 996.953125 262.078125 997.988281 261.558594 999.011719 261.011719 C 1000.035156 260.464844 1001.042969 259.894531 1002.035156 259.296875 C 1003.03125 258.703125 1004.011719 258.082031 1004.972656 257.4375 C 1005.9375 256.792969 1006.886719 256.125 1007.816406 255.433594 C 1008.746094 254.746094 1009.660156 254.03125 1010.558594 253.296875 C 1011.453125 252.5625 1012.332031 251.804688 1013.191406 251.027344 C 1014.050781 250.246094 1014.886719 249.449219 1015.707031 248.628906 C 1016.527344 247.808594 1017.328125 246.96875 1018.105469 246.109375 C 1018.882812 245.25 1019.640625 244.375 1020.375 243.476562 C 1021.113281 242.582031 1021.824219 241.667969 1022.515625 240.738281 C 1023.207031 239.804688 1023.871094 238.859375 1024.515625 237.894531 C 1025.160156 236.929688 1025.78125 235.953125 1026.378906 234.957031 C 1026.972656 233.964844 1027.542969 232.953125 1028.089844 231.933594 C 1028.636719 230.910156 1029.15625 229.875 1029.652344 228.828125 C 1030.148438 227.777344 1030.617188 226.71875 1031.0625 225.648438 C 1031.507812 224.578125 1031.921875 223.496094 1032.3125 222.40625 C 1032.703125 221.3125 1033.066406 220.210938 1033.40625 219.101562 C 1033.742188 217.992188 1034.050781 216.878906 1034.332031 215.753906 C 1034.613281 214.628906 1034.867188 213.496094 1035.09375 212.359375 C 1035.320312 211.222656 1035.519531 210.082031 1035.6875 208.933594 C 1035.859375 207.789062 1036 206.636719 1036.113281 205.484375 C 1036.226562 204.332031 1036.3125 203.175781 1036.371094 202.015625 C 1036.425781 200.859375 1036.453125 199.699219 1036.453125 198.542969 C 1036.453125 197.382812 1036.425781 196.222656 1036.371094 195.066406 C 1036.3125 193.90625 1036.226562 192.753906 1036.113281 191.597656 C 1036 190.445312 1035.859375 189.292969 1035.6875 188.148438 C 1035.519531 187 1035.320312 185.859375 1035.09375 184.722656 C 1034.867188 183.585938 1034.613281 182.453125 1034.332031 181.332031 C 1034.050781 180.207031 1033.742188 179.089844 1033.40625 177.980469 C 1033.066406 176.871094 1032.703125 175.769531 1032.3125 174.679688 C 1031.921875 173.585938 1031.507812 172.507812 1031.0625 171.433594 C 1030.617188 170.363281 1030.148438 169.304688 1029.652344 168.257812 C 1029.15625 167.207031 1028.636719 166.171875 1028.089844 165.152344 C 1027.542969 164.128906 1026.972656 163.121094 1026.378906 162.125 C 1025.78125 161.132812 1025.160156 160.152344 1024.515625 159.1875 C 1023.871094 158.226562 1023.207031 157.277344 1022.515625 156.347656 C 1021.824219 155.414062 1021.113281 154.5 1020.375 153.605469 C 1019.640625 152.710938 1018.882812 151.832031 1018.105469 150.972656 C 1017.328125 150.113281 1016.527344 149.273438 1015.707031 148.453125 C 1014.886719 147.636719 1014.050781 146.835938 1013.191406 146.058594 C 1012.332031 145.277344 1011.453125 144.523438 1010.558594 143.785156 C 1009.660156 143.050781 1008.746094 142.339844 1007.816406 141.648438 C 1006.886719 140.957031 1005.9375 140.289062 1004.972656 139.644531 C 1004.011719 139 1003.03125 138.382812 1002.035156 137.785156 C 1001.042969 137.191406 1000.035156 136.617188 999.011719 136.070312 C 997.988281 135.527344 996.953125 135.003906 995.90625 134.507812 C 994.859375 134.011719 993.800781 133.542969 992.726562 133.101562 C 991.65625 132.65625 990.574219 132.238281 989.484375 131.847656 C 988.394531 131.457031 987.292969 131.09375 986.183594 130.757812 C 985.074219 130.421875 983.957031 130.113281 982.832031 129.832031 C 981.707031 129.550781 980.578125 129.296875 979.441406 129.070312 C 978.304688 128.84375 977.160156 128.644531 976.015625 128.476562 C 974.867188 128.304688 973.71875 128.164062 972.5625 128.050781 C 971.410156 127.9375 970.253906 127.851562 969.097656 127.792969 C 967.9375 127.738281 966.78125 127.707031 965.621094 127.707031 Z M 965.621094 127.707031 "/>
<path style=" stroke:none;fill-rule:nonzero;fill:rgb(100%,100%,100%);fill-opacity:1;" d="M 159.378906 127.707031 C 158.21875 127.707031 157.0625 127.738281 155.902344 127.792969 C 154.746094 127.851562 153.589844 127.9375 152.4375 128.050781 C 151.28125 128.164062 150.132812 128.304688 148.984375 128.476562 C 147.839844 128.644531 146.695312 128.84375 145.558594 129.070312 C 144.421875 129.296875 143.292969 129.550781 142.167969 129.832031 C 141.042969 130.113281 139.925781 130.421875 138.816406 130.757812 C 137.707031 131.09375 136.605469 131.457031 135.515625 131.847656 C 134.425781 132.238281 133.34375 132.65625 132.273438 133.101562 C 131.199219 133.542969 130.140625 134.011719 129.09375 134.507812 C 128.046875 135.003906 127.011719 135.527344 125.988281 136.070312 C 124.964844 136.617188 123.957031 137.191406 122.964844 137.785156 C 121.96875 138.382812 120.988281 139 120.027344 139.644531 C 119.0625 140.289062 118.113281 140.957031 117.183594 141.648438 C 116.253906 142.339844 115.339844 143.050781 114.441406 143.785156 C 113.546875 144.523438 112.667969 145.277344 111.808594 146.058594 C 110.949219 146.835938 110.113281 147.636719 109.292969 148.453125 C 108.472656 149.273438 107.671875 150.113281 106.894531 150.972656 C 106.117188 151.832031 105.359375 152.710938 104.625 153.605469 C 103.886719 154.5 103.175781 155.414062 102.484375 156.347656 C 101.792969 157.277344 101.125 158.226562 100.484375 159.1875 C 99.839844 160.152344 99.21875 161.132812 98.621094 162.125 C 98.027344 163.121094 97.457031 164.128906 96.910156 165.152344 C 96.363281 166.171875 95.839844 167.207031 95.347656 168.257812 C 94.851562 169.304688 94.378906 170.363281 93.9375 171.433594 C 93.492188 172.507812 93.078125 173.585938 92.6875 174.679688 C 92.296875 175.769531 91.933594 176.871094 91.59375 177.980469 C 91.257812 179.089844 90.949219 180.207031 90.667969 181.332031 C 90.386719 182.453125 90.132812 183.585938 89.90625 184.722656 C 89.679688 185.859375 89.480469 187 89.3125 188.148438 C 89.140625 189.292969 89 190.445312 88.886719 191.597656 C 88.773438 192.753906 88.6875 193.90625 88.628906 195.066406 C 88.574219 196.222656 88.546875 197.382812 88.546875 198.542969 C 88.546875 199.699219 88.574219 200.859375 88.628906 202.015625 C 88.6875 203.175781 88.773438 204.332031 88.886719 205.484375 C 89 206.636719 89.140625 207.789062 89.3125 208.933594 C 89.480469 210.082031 89.679688 211.222656 89.90625 212.359375 C 90.132812 213.496094 90.386719 214.628906 90.667969 215.753906 C 90.949219 216.878906 91.257812 217.992188 91.59375 219.101562 C 91.933594 220.210938 92.296875 221.3125 92.6875 222.40625 C 93.078125 223.496094 93.492188 224.578125 93.9375 225.648438 C 94.378906 226.71875 94.851562 227.777344 95.347656 228.828125 C 95.839844 229.875 96.363281 230.910156 96.910156 231.933594 C 97.457031 232.953125 98.027344 233.964844 98.621094 234.957031 C 99.21875 235.953125 99.839844 236.929688 100.484375 237.894531 C 101.125 238.859375 101.792969 239.804688 102.484375 240.738281 C 103.175781 241.667969 103.886719 242.582031 104.625 243.476562 C 105.359375 244.375 106.117188 245.25 106.894531 246.109375 C 107.671875 246.96875 108.472656 247.808594 109.292969 248.628906 C 110.113281 249.449219 110.949219 250.246094 111.808594 251.027344 C 112.667969 251.804688 113.546875 252.5625 114.441406 253.296875 C 115.339844 254.03125 116.253906 254.746094 117.183594 255.433594 C 118.113281 256.125 119.0625 256.792969 120.027344 257.4375 C 120.988281 258.082031 121.96875 258.703125 122.964844 259.296875 C 123.957031 259.894531 124.964844 260.464844 125.988281 261.011719 C 127.011719 261.558594 128.046875 262.078125 129.09375 262.574219 C 130.140625 263.070312 131.199219 263.539062 132.273438 263.984375 C 133.34375 264.425781 134.425781 264.84375 135.515625 265.234375 C 136.605469 265.625 137.707031 265.988281 138.816406 266.324219 C 139.925781 266.660156 141.042969 266.96875 142.167969 267.253906 C 143.292969 267.535156 144.421875 267.789062 145.558594 268.015625 C 146.695312 268.238281 147.839844 268.4375 148.984375 268.609375 C 150.132812 268.777344 151.28125 268.921875 152.4375 269.035156 C 153.589844 269.148438 154.746094 269.234375 155.902344 269.289062 C 157.0625 269.347656 158.21875 269.375 159.378906 269.375 C 160.539062 269.375 161.695312 269.347656 162.855469 269.289062 C 164.011719 269.234375 165.167969 269.148438 166.320312 269.035156 C 167.476562 268.921875 168.625 268.777344 169.773438 268.609375 C 170.917969 268.4375 172.0625 268.238281 173.199219 268.015625 C 174.335938 267.789062 175.464844 267.535156 176.589844 267.253906 C 177.714844 266.96875 178.832031 266.660156 179.941406 266.324219 C 181.050781 265.988281 182.148438 265.625 183.242188 265.234375 C 184.332031 264.84375 185.414062 264.425781 186.484375 263.984375 C 187.554688 263.539062 188.617188 263.070312 189.664062 262.574219 C 190.710938 262.078125 191.746094 261.558594 192.769531 261.011719 C 193.792969 260.464844 194.800781 259.894531 195.792969 259.296875 C 196.789062 258.703125 197.769531 258.082031 198.730469 257.4375 C 199.695312 256.792969 200.644531 256.125 201.574219 255.433594 C 202.503906 254.746094 203.417969 254.03125 204.316406 253.296875 C 205.210938 252.5625 206.089844 251.804688 206.949219 251.027344 C 207.804688 250.246094 208.644531 249.449219 209.464844 248.628906 C 210.285156 247.808594 211.085938 246.96875 211.863281 246.109375 C 212.640625 245.25 213.398438 244.375 214.132812 243.476562 C 214.867188 242.582031 215.582031 241.667969 216.273438 240.738281 C 216.964844 239.804688 217.628906 238.859375 218.273438 237.894531 C 218.917969 236.929688 219.539062 235.953125 220.132812 234.957031 C 220.730469 233.964844 221.300781 232.953125 221.847656 231.933594 C 222.394531 230.910156 222.914062 229.875 223.410156 228.828125 C 223.90625 227.777344 224.375 226.71875 224.820312 225.648438 C 225.265625 224.578125 225.679688 223.496094 226.070312 222.40625 C 226.460938 221.3125 226.824219 220.210938 227.160156 219.101562 C 227.5 217.992188 227.808594 216.878906 228.089844 215.753906 C 228.371094 214.628906 228.625 213.496094 228.851562 212.359375 C 229.078125 211.222656 229.273438 210.082031 229.445312 208.933594 C 229.617188 207.789062 229.757812 206.636719 229.871094 205.484375 C 229.984375 204.332031 230.070312 203.175781 230.125 202.015625 C 230.183594 200.859375 230.210938 199.699219 230.210938 198.542969 C 230.210938 197.382812 230.183594 196.222656 230.125 195.066406 C 230.070312 193.90625 229.984375 192.753906 229.871094 191.597656 C 229.757812 190.445312 229.617188 189.292969 229.445312 188.148438 C 229.273438 187 229.078125 185.859375 228.851562 184.722656 C 228.625 183.585938 228.371094 182.453125 228.089844 181.332031 C 227.808594 180.207031 227.5 179.089844 227.160156 177.980469 C 226.824219 176.871094 226.460938 175.769531 226.070312 174.679688 C 225.679688 173.585938 225.265625 172.507812 224.820312 171.433594 C 224.375 170.363281 223.90625 169.304688 223.410156 168.257812 C 222.914062 167.207031 222.394531 166.171875 221.847656 165.152344 C 221.300781 164.128906 220.730469 163.121094 220.132812 162.125 C 219.539062 161.132812 218.917969 160.152344 218.273438 159.1875 C 217.628906 158.226562 216.964844 157.277344 216.273438 156.347656 C 215.582031 155.414062 214.867188 154.5 214.132812 153.605469 C 213.398438 152.710938 212.640625 151.832031 211.863281 150.972656 C 211.085938 150.113281 210.285156 149.273438 209.464844 148.453125 C 208.644531 147.636719 207.804688 146.835938 206.949219 146.058594 C 206.089844 145.277344 205.210938 144.523438 204.316406 143.785156 C 203.417969 143.050781 202.503906 142.339844 201.574219 141.648438 C 200.644531 140.957031 199.695312 140.289062 198.730469 139.644531 C 197.769531 139 196.789062 138.382812 195.792969 137.785156 C 194.800781 137.191406 193.792969 136.617188 192.769531 136.070312 C 191.746094 135.527344 190.710938 135.003906 189.664062 134.507812 C 188.617188 134.011719 187.554688 133.542969 186.484375 133.101562 C 185.414062 132.65625 184.332031 132.238281 183.242188 131.847656 C 182.148438 131.457031 181.050781 131.09375 179.941406 130.757812 C 178.832031 130.421875 177.714844 130.113281 176.589844 129.832031 C 175.464844 129.550781 174.335938 129.296875 173.199219 129.070312 C 172.0625 128.84375 170.917969 128.644531 169.773438 128.476562 C 168.625 128.304688 167.476562 128.164062 166.320312 128.050781 C 165.167969 127.9375 164.011719 127.851562 162.855469 127.792969 C 161.695312 127.738281 160.539062 127.707031 159.378906 127.707031 Z M 159.378906 127.707031 "/>
</g>
</svg>
